<?xml version="1.0" encoding="UTF-8"?>
<svg id="Layer_1" xmlns="http://www.w3.org/2000/svg" version="1.1" viewBox="0 0 1007.94 265.78">
  <!-- Generator: Adobe Illustrator 30.0.0, SVG Export Plug-In . SVG Version: 2.1.1 Build 123)  -->
  <defs>
    <style>
      .st0 {
        font-family: MotivaSans-Regular, 'Motiva Sans';
        font-size: 27.9px;
        letter-spacing: .25em;
      }

      .st0, .st1 {
        isolation: isolate;
      }

      .st0, .st2 {
        fill: #fff;
      }
    </style>
  </defs>
  <g class="st1">
    <text class="st0" transform="translate(219.36 265.42)"><tspan x="0" y="0">WHERE STORIES COME ALIVE</tspan></text>
  </g>
  <g>
    <circle class="st2" cx="693.85" cy="51.22" r="15.27" transform="translate(6.94 161.71) rotate(-13.36)"/>
    <path class="st2" d="M514.79,150.18c-3-43-74.09-22.87-71.14-61.06,2.56-11.46,11.1-16.56,19.98-16.35,11.02.27,22.64,8.36,22.56,32.16,0,1.17,1.52,1.61,2.12.61l13.24-22.15c.31-.51.17-1.18-.31-1.52-11.8-8.46-26.38-13.24-41.1-12.11-20.11,1.38-37.01,13.22-37.55,35.5.97,32.61,37.59,30.83,57.5,41.82,23.11,12.76,10.92,38.09-11.23,37.75-22.12-.34-33.39-20.03-35.56-41.3-.12-1.16-1.68-1.41-2.15-.35l-12.76,28.91c-.22.49-.07,1.08.37,1.39,12.73,9.05,32.25,14.91,48.52,14.87,23.59-.06,49.44-10.63,47.52-38.17h0Z"/>
    <path class="st2" d="M948.15,69.62c-33.02,0-59.79,26.57-59.79,59.36s26.77,59.36,59.79,59.36,59.79-26.58,59.79-59.36-26.77-59.36-59.79-59.36ZM948.15,185.18c-16.75,0-30.32-23.93-30.32-56.21s13.58-56.24,30.32-56.24,30.32,23.96,30.32,56.24-13.58,56.21-30.32,56.21Z"/>
    <path class="st2" d="M882.39,185.46c-1.46-.94-3.61-.83-5.3-1.13-2.77-.49-5.26-.69-7.43-4.69-3.31-6.1-3.59-14.47-3.59-21.7,0,0-.04-53.76-.25-59.66-.08-2.26-.8-4.34-1.45-6.29-7.63-23.03-37.46-26.4-58.82-18.29-7.01,2.66-13.19,7.11-18.27,12.62l-8.19,8.88v-25.56l-19.86,14.06c-6.32,4.47-10.09,11.71-10.14,19.44-.04,6.06-.07,11.61-.07,16.03,0,10.02.61,27.48-13.2,47.11-4.46,6.34-21.97,25.69-25.62,6.94-1.71-8.81-.79-100.03-.79-100.32-4.7,2.64-12.13,6.85-18.49,10.45-7.45,4.22-12.05,12.13-11.98,20.68.1,11.87.18,46.39-.18,64.51l.08,10.01c-.06,3.06-.1,5.22-4.78,5.8-1.7.21-3.84.19-5.3,1.13-.97.61-1.07,1.27-1.01,2.08.03.39.35.77.78.77,1.95,0,6.68-.08,24.54.02,6.57.04,13.83-.84,15.86-1.09,4.02-.51,10.4-2.42,12.65-3.48,6.83-3.21,11.09-7.78,16.67-14.8,8.57-10.79,22.39-39.72,31.73-55.05.46-.74.91-1.43,1.37-2.08,3.44-5.07,6.33-9.05,7.32-10.41.11-.16.24-.33.41-.57,1.84-2.3,3.74-4.52,5.76-6.67,13.2-13.97,38.55-24.82,47.32-.9,4.18,11.39,2.71,78.97,2.71,78.97-.34,2.28-.91,5.14-2.46,7.24-2.26,3.05-3.06,4.02-6.92,4.83-1.68.35-3.84.19-5.3,1.13-.97.61-1.07,1.27-1.01,2.08.03.39.35.77.78.77h16.75c17.86.02,43.98-.02,45.92-.02.43,0,.75-.38.78-.77.06-.81-.04-1.47-1.01-2.08h-.01Z"/>
    <path class="st2" d="M405.23,185.52c-1.46-.94-3.69-.53-5.3-1.12-6.68-2.45-6.4-5.76-6.4-13.3,0,0,.23-17.5.23-30.13v-71.3l-18.98,10.67c-7.43,4.18-12.03,12.02-12.03,20.52v38.68s-.07,6.86-.44,9.89c-1.51,12.58-12.83,22.96-24.64,26.52-7.83,2.38-17.75,1.7-23.21-4.6-3.99-4.6-4.9-7.8-5.11-18.56-.48-25.27,0-83.12,0-83.12l-18.98,10.67c-7.43,4.18-12.03,12.02-12.03,20.52v40.35c-.22,22.17,3.56,42.82,25.69,46.24,25.27,3.9,41.37-6.5,56.66-24.29l1.51-1.98v.1c-.01.14-.03.3-.03.44,0,8.76,2.42,17.32,9.95,22.59,5.07,3.54,10.83,3.75,16.83,4,1.95.08,14.57.08,16.51.08.43,0,.75-.38.78-.77.06-.81-.04-1.47-1.01-2.08v-.02Z"/>
    <circle class="st2" cx="764.36" cy="173.04" r="15.27"/>
    <path class="st2" d="M134.88,69.61h-29.77c-.38.05-.66.39-.69.75-.06.81.04,1.47,1.01,2.09,1.46.94,3.6.91,5.3,1.13,3.52.44,4.69,2.17,4.63,4.64-.17,1.26-.72,2.81-.72,2.81-9.88,28.26-32.22,91.84-32.22,91.84,0,0-18.7-53.97-27.61-78.37-2.27-6.22-2.88-8.14-2.68-11.11h0c0-.18.03-.36.04-.55v-.09c.28-4.5,3.21-8.65,7.69-9.21,1.7-.21,3.84-.19,5.3-1.13.97-.61,1.07-1.27,1.01-2.09-.03-.38-.35-.67-.77-.71H.53c-.29.12-.49.41-.52.71-.06.81.04,1.47,1.01,2.09,1.46.94,3.6.89,5.3,1.13,4.01.57,6.17,2.69,7.62,4.98.75,1.19,1.32,2.49,1.78,3.81l23.25,65.97c3.26,9.59,7.67,18.89,10.22,28.71,1.01,3.86.49,6.74-4.2,7.33-1.7.21-3.84.19-5.3,1.13-.97.61-1.07,1.27-1.01,2.09.03.39.36.69.79.71,1.94.1,28.05.1,45.91.08h-7.95,19.49c.43-.02.76-.32.79-.7.03-.43,0-.81-.16-1.17-.14-.36-.4-.69-.9-1-1.46-.94-3.59-1.19-5.24-1.63-3.65-.98-4.66-5.85-3.86-10.42,1.3-7.43,3.37-14.76,5.36-20.7,2.65-7.9,17.17-48.79,23.06-64.62,3.29-8.85,7.47-11.81,11.13-13.42,1.51-.66,5.92-1.34,7.38-2.29.97-.61,1.07-1.27,1.01-2.09-.02-.33-.27-.6-.6-.68v-.02Z"/>
    <path class="st2" d="M270.83,185.46c-1.46-.94-3.62-.79-5.3-1.13-2.21-.44-3.04-1.13-5.07-2.56-2.8-1.97-5.47-4.57-6.4-5.48-5.79-5.63-10.64-12.39-14.74-18.38l-25.71-37.51-4.27-6.3-4.89-7.11s16.54-23.43,18.18-25.21c1.79-1.95,3.45-3.62,4.58-4.64,3.59-3.24,8.03-3.11,11.54-3.55,1.7-.21,3.84-.19,5.3-1.13.97-.61,1.07-1.27,1.01-2.09-.03-.37-.32-.73-.72-.76h-36.85c-.4.03-.7.39-.72.76-.06.81.04,1.47,1.01,2.09,1.46.94,3.6.91,5.3,1.13,3.52.44,4.69,2.17,4.63,4.64,0,1.1.12,1.95-1.27,4.17-2.33,3.72-9.83,13.56-14.37,20.5-1.17,1.79-16.29,23.56-17.55,25.28L184.39.02c-4.13,2.4-12.01,6.86-18.78,10.67-7.47,4.21-12.07,12.12-12.04,20.69.12,37.02.37,137.08-.37,140.92-.44,2.27-.91,5.15-2.46,7.25-2.26,3.05-3.06,4.02-6.92,4.84-1.68.35-3.84.19-5.3,1.13-.97.61-1.07,1.27-1.01,2.09.03.39.35.77.78.77,1.95,0,28.06.04,45.92.02l-29.17-.03c17.86.02,43.98-.02,45.92-.02.43,0,.75-.38.78-.77.06-.81-.04-1.47-1.01-2.09-1.46-.94-3.61-.83-5.3-1.13-2.77-.49-5.26-.69-7.43-4.7-3.31-6.11-3.59-14.49-3.59-21.72v-22.14l4.71-6.77,19.81,28.9c2.2,3.22,4.45,6.69,6.45,10.03,3.6,6.02,5.73,10.42,5.59,12.76s-1.05,2.9-1.88,3.16c-.55.21-1.19.37-1.94.46-1.7.21-3.84.19-5.3,1.13-.97.61-1.07,1.27-1.01,2.09.03.39.35.77.78.77,1.24,0,12.31.02,24.79.02h-11.25c17.86.02,43.98-.02,45.92-.02.43,0,.75-.38.78-.77.06-.81-.04-1.47-1.01-2.09h-.02Z"/>
    <path class="st2" d="M654.69,185.47c-1.46-.94-3.62-.79-5.3-1.13-2.21-.44-3.04-1.13-5.07-2.56-2.8-1.97-5.47-4.57-6.4-5.48-5.79-5.63-10.64-12.39-14.74-18.38l-25.71-37.51-4.27-6.3-4.89-7.11s16.54-23.43,18.18-25.21c1.79-1.95,3.45-3.62,4.58-4.64,3.59-3.24,8.03-3.11,11.54-3.55,1.7-.21,3.84-.19,5.3-1.13.97-.61,1.07-1.27,1.01-2.09-.03-.38-.35-.76-.77-.77h-36.76c-.43,0-.74.39-.77.77-.06.81.04,1.47,1.01,2.09,1.46.94,3.6.91,5.3,1.13,3.52.44,4.69,2.17,4.63,4.64,0,1.1.12,1.95-1.27,4.17-2.33,3.72-9.83,13.56-14.37,20.5-1.17,1.79-16.29,23.56-17.55,25.28L568.27,0c-4.13,2.4-12.01,6.86-18.78,10.67-7.47,4.21-12.07,12.12-12.04,20.69.12,37.02.37,137.08-.37,140.92-.44,2.27-.91,5.15-2.46,7.25-2.26,3.05-3.06,4.02-6.92,4.84-1.68.35-3.84.19-5.3,1.13-.97.61-1.07,1.27-1.01,2.09.03.39.35.77.78.77,1.95,0,28.06.04,45.92.02l-29.17-.03c17.86.02,43.98-.02,45.92-.02.43,0,.75-.38.78-.77.06-.81-.04-1.47-1.01-2.09-1.46-.94-3.61-.83-5.3-1.13-2.77-.49-5.26-.69-7.43-4.7-3.31-6.11-3.59-14.49-3.59-21.72v-22.14l4.71-6.77,19.81,28.9c2.2,3.22,4.45,6.69,6.45,10.03,3.6,6.02,5.73,10.42,5.59,12.76-.14,2.34-1.05,2.9-1.88,3.16-.55.21-1.19.37-1.94.46-1.7.21-3.84.19-5.3,1.13-.97.61-1.07,1.27-1.01,2.09.03.39.35.77.78.77,1.24,0,12.31.02,24.79.02h-11.25c17.86.02,43.98-.02,45.92-.02.43,0,.75-.38.78-.77.06-.81-.04-1.47-1.01-2.09h-.04Z"/>
  </g>
</svg>